<?xml version="1.0" encoding="UTF-8" standalone="no"?>
<!DOCTYPE svg PUBLIC "-//W3C//DTD SVG 1.1//EN" "http://www.w3.org/Graphics/SVG/1.1/DTD/svg11.dtd">
<svg xmlns="http://www.w3.org/2000/svg" version="1.1" viewBox="0.00 0.00 1254.00 1254.00">
<path fill="#201e1f" d="
  M 319.86 199.80
  Q 320.92 198.40 322.92 197.15
  Q 350.49 179.87 381.63 170.39
  Q 384.83 169.42 396.54 166.26
  C 412.00 162.08 426.42 160.05 443.76 158.50
  Q 472.90 155.87 502.33 160.62
  C 518.96 163.30 534.75 168.96 549.04 176.47
  Q 557.89 181.12 568.32 189.58
  C 586.87 204.63 600.37 226.03 609.61 248.63
  Q 620.33 274.81 624.83 304.13
  C 625.16 306.26 625.09 308.96 623.51 310.62
  Q 620.44 313.84 616.40 311.47
  C 602.53 303.37 587.46 298.68 571.66 299.62
  C 565.37 299.99 557.06 301.13 549.16 302.85
  Q 528.20 307.42 524.99 307.96
  C 517.45 309.23 507.80 310.95 498.43 311.79
  C 470.87 314.25 442.26 308.01 417.90 294.52
  Q 399.68 284.42 384.58 270.41
  C 372.54 259.24 360.48 245.54 349.43 232.06
  Q 334.92 214.35 319.99 201.09
  A 0.96 0.95 -51.0 0 1 319.86 199.80
  Z
  M 417.87 207.15
  Q 419.51 207.51 420.78 207.58
  C 437.20 208.41 452.89 211.15 469.36 214.58
  Q 482.62 217.33 493.46 220.63
  Q 509.54 225.54 517.04 228.49
  C 536.84 236.30 555.75 246.21 573.02 258.96
  Q 593.41 274.01 608.76 291.13
  A 0.33 0.32 -77.6 0 0 609.30 290.78
  Q 602.87 275.45 592.29 261.96
  Q 571.93 235.96 541.09 221.66
  Q 525.23 214.30 510.63 210.69
  Q 464.86 199.39 417.87 207.00
  A 0.08 0.08 0.0 0 0 417.87 207.15
  Z"
/>
<path fill="#201e1f" d="
  M 893.64 870.66
  A 0.39 0.38 -1.3 0 1 894.06 871.06
  Q 893.55 883.87 890.79 896.56
  C 881.09 941.17 855.12 980.97 819.13 1008.88
  C 791.87 1030.01 759.95 1043.26 726.47 1050.19
  Q 704.12 1054.81 680.73 1054.29
  C 671.39 1054.08 657.72 1052.65 645.98 1051.06
  Q 624.77 1048.20 606.49 1051.20
  Q 583.07 1055.04 562.78 1055.35
  Q 516.14 1056.05 475.25 1037.39
  Q 440.49 1021.52 414.97 994.17
  Q 389.13 966.48 375.32 931.44
  Q 365.88 907.48 362.41 878.22
  C 356.33 826.95 366.10 774.25 388.82 727.81
  Q 398.30 708.43 408.61 692.59
  C 415.19 682.47 418.24 677.52 424.07 669.33
  Q 442.23 643.80 447.96 634.24
  Q 449.94 630.93 451.79 628.01
  C 461.80 612.25 469.79 596.54 477.50 579.33
  Q 480.52 572.59 482.22 567.59
  C 483.94 562.52 486.23 557.67 488.05 551.72
  Q 495.29 527.97 496.69 521.93
  C 500.07 507.29 502.41 498.12 504.44 487.88
  Q 507.39 472.96 513.55 444.64
  C 515.90 433.83 517.87 427.96 521.66 415.38
  Q 523.95 407.80 531.01 393.23
  Q 537.61 379.64 551.13 365.37
  Q 552.26 364.18 560.04 357.78
  Q 565.31 353.43 569.58 351.00
  C 581.29 344.30 592.20 339.56 605.42 337.55
  Q 616.23 335.91 627.12 335.86
  A 0.93 0.92 -84.8 0 0 628.03 335.10
  C 634.51 301.04 645.29 266.79 660.18 235.70
  Q 673.77 207.33 692.18 179.69
  Q 695.13 175.25 700.55 172.29
  C 707.77 168.35 719.43 168.80 726.97 171.05
  Q 735.88 173.72 740.69 179.38
  C 748.41 188.47 746.77 201.12 737.98 209.50
  Q 736.32 211.08 724.40 221.13
  C 689.96 250.17 665.04 290.58 656.35 334.96
  A 0.82 0.81 7.6 0 0 657.09 335.92
  C 680.23 337.65 700.96 345.88 717.00 361.74
  C 727.80 372.41 737.56 387.61 743.44 403.03
  Q 751.36 423.82 754.13 438.12
  C 760.41 470.65 763.95 495.38 775.44 519.83
  Q 785.66 541.57 797.17 557.86
  Q 808.54 573.98 811.31 577.63
  A 0.37 0.37 0.0 0 1 811.21 578.17
  C 799.41 585.22 789.56 594.18 783.72 606.65
  Q 774.99 625.32 782.14 646.44
  A 0.95 0.95 0.0 0 1 781.58 647.64
  C 760.62 655.56 744.12 669.94 735.59 689.82
  C 727.69 708.22 728.61 730.31 738.73 748.32
  Q 744.55 758.68 754.74 767.24
  Q 757.70 769.73 762.47 772.47
  A 0.64 0.63 28.1 0 1 762.73 773.30
  C 754.72 789.54 755.01 808.43 764.29 824.05
  C 770.39 834.32 777.03 840.92 787.60 847.12
  C 800.71 854.80 816.90 857.41 831.99 855.75
  Q 834.75 855.44 844.17 853.66
  A 1.40 1.39 63.7 0 1 845.48 854.11
  Q 846.17 854.90 848.41 856.90
  C 854.95 862.74 862.23 866.80 871.26 868.87
  Q 882.70 871.49 893.64 870.66
  Z"
/>
</svg>
